<?xml version="1.0" encoding="UTF-8" standalone="no"?>
<!-- Created with Inkscape (http://www.inkscape.org/) -->

<svg
   xmlns:dc="http://purl.org/dc/elements/1.1/"
   xmlns:cc="http://creativecommons.org/ns#"
   xmlns:rdf="http://www.w3.org/1999/02/22-rdf-syntax-ns#"
   xmlns:svg="http://www.w3.org/2000/svg"
   xmlns="http://www.w3.org/2000/svg"
   xmlns:sodipodi="http://sodipodi.sourceforge.net/DTD/sodipodi-0.dtd"
   xmlns:inkscape="http://www.inkscape.org/namespaces/inkscape"
   width="199.41953mm"
   height="195.59676mm"
   viewBox="0 0 199.41953 195.59676"
   version="1.1"
   id="svg8"
   inkscape:version="0.92.1 r15371"
   sodipodi:docname="pbc_logo.svg">
  <defs
     id="defs2" />
  <sodipodi:namedview
     id="base"
     pagecolor="#ffffff"
     bordercolor="#666666"
     borderopacity="1.0"
     inkscape:pageopacity="0.0"
     inkscape:pageshadow="2"
     inkscape:zoom="0.35355339"
     inkscape:cx="1084.766"
     inkscape:cy="-61.048873"
     inkscape:document-units="mm"
     inkscape:current-layer="g5755"
     showgrid="false"
     showguides="true"
     inkscape:guide-bbox="true"
     inkscape:window-width="1920"
     inkscape:window-height="1013"
     inkscape:window-x="-9"
     inkscape:window-y="-9"
     inkscape:window-maximized="1"
     inkscape:snap-nodes="true" />
  <metadata
     id="metadata5">
    <rdf:RDF>
      <cc:Work
         rdf:about="">
        <dc:format>image/svg+xml</dc:format>
        <dc:type
           rdf:resource="http://purl.org/dc/dcmitype/StillImage" />
        <dc:title></dc:title>
      </cc:Work>
    </rdf:RDF>
  </metadata>
  <g
     inkscape:label="Layer 1"
     inkscape:groupmode="layer"
     id="layer1"
     transform="translate(-4.805129,-20.727334)">
    <g
       id="g4593"
       transform="rotate(-11.627499,121.77429,77.607372)" />
    <circle
       style="fill:#ff2a2a;fill-opacity:1;stroke:none;stroke-width:0.66550004;stroke-miterlimit:4;stroke-dasharray:none;stroke-opacity:1"
       id="path5684"
       cx="88.068436"
       cy="103.2296"
       r="0" />
    <g
       id="g5755"
       transform="matrix(1.0670419,0,0,1.0670419,4.6970018,20.663737)">
      <ellipse
         ry="91.65374"
         rx="93.44503"
         cy="91.713341"
         cx="93.546364"
         id="path5716"
         style="fill:#a02c2c;fill-opacity:1;stroke:none;stroke-width:10.93502045;stroke-miterlimit:4;stroke-dasharray:65.61012271, 65.61012271;stroke-dashoffset:0;stroke-opacity:1" />
      <g
         transform="translate(2.3225608,2.5125475)"
         id="g5744"
         style="fill:#ffffff">
        <g
           id="g5735"
           style="fill:#ffffff">
          <g
             transform="translate(3.0238176,-18.046312)"
             id="g5700"
             style="fill:#ffffff">
            <g
               id="g5648"
               transform="matrix(1,0,0,1.1691061,-1.2010495,-18.586642)"
               style="fill:#ffffff">
              <ellipse
                 ry="7.1828685"
                 rx="5.7128859"
                 cy="47.804573"
                 cx="89.30143"
                 id="path4686"
                 style="fill:#ffffff;fill-opacity:1;stroke:none;stroke-width:0.5;stroke-miterlimit:4;stroke-dasharray:none;stroke-opacity:1" />
              <ellipse
                 transform="rotate(-16.196368)"
                 ry="5.1896224"
                 rx="4.1275601"
                 cy="79.272057"
                 cx="12.792162"
                 id="path4686-7"
                 style="fill:#ffffff;fill-opacity:1;stroke:none;stroke-width:0.36125001;stroke-miterlimit:4;stroke-dasharray:none;stroke-opacity:1" />
              <ellipse
                 transform="matrix(-0.96031137,-0.27893023,-0.27893023,0.96031137,0,0)"
                 ry="5.1896224"
                 rx="4.1275601"
                 cy="29.479155"
                 cx="-158.36568"
                 id="path4686-7-5"
                 style="fill:#ffffff;fill-opacity:1;stroke:none;stroke-width:0.36125001;stroke-miterlimit:4;stroke-dasharray:none;stroke-opacity:1" />
            </g>
          </g>
          <path
             style="fill:#ffffff;fill-opacity:1;stroke:none;stroke-width:0.58340341;stroke-miterlimit:4;stroke-dasharray:none;stroke-opacity:1"
             d="m 145.8602,80.346233 c 1.04656,-1.947417 16.14717,-2.213344 16.14717,-2.213344 0,0 -9.73227,-1.546639 -14.50351,-2.867306 -4.45066,-1.231934 -4.43735,-0.63844 -13.11858,-4.701514 -8.68124,-4.063074 -24.811,-18.197901 -37.901565,-22.182057 -2.823921,-0.63367 -5.716627,-1.100879 -8.173145,-1.078412 -0.03656,6.18e-4 -0.07301,0.0028 -0.109554,0.0036 -0.180652,-0.0049 -0.362042,-0.0074 -0.545187,-0.0067 v 2.2e-5 c -2.418974,0.0097 -5.049573,0.493709 -7.739578,1.0766 -13.09056,3.984158 -29.220316,18.118979 -37.901562,22.182054 -8.681231,4.063077 -8.66793,3.469579 -13.118579,4.701513 -4.771238,1.320668 -14.503507,2.867307 -14.503507,2.867307 0,0 15.100605,0.265929 16.147167,2.213347 2.932969,5.457593 9.630069,29.740657 9.630069,29.740657 l -13.704511,29.22497 c -5.742414,-1.62994 -13.578092,-4.33854 -13.578092,-4.33854 l -2.9224052,5.04847 c 0,0 8.1037902,2.71543 14.1038122,4.40077 l -3.926265,8.37292 6.738183,1.64374 3.083626,-8.57848 c 6.166549,1.28263 14.825202,2.6563 14.825202,2.6563 l 1.405937,-5.4184 c 0,0 -8.434535,-1.26043 -14.349077,-2.47413 L 43.738291,110.07049 C 41.459587,94.141713 41.31257,80.220667 43.80958,76.747753 c 0,0 18.617316,-21.127262 32.693805,-20.247131 4.119428,18.366599 9.179661,32.437925 8.936133,53.585898 l -0.994773,51.66575 c -8.135353,-0.36347 -19.490282,-1.62804 -19.490282,-1.62804 l -1.058333,9.13989 c 0,0 11.698451,1.17166 20.189464,1.52331 l -0.588078,14.80234 h 9.405112 l -0.588079,-14.80234 c 8.491011,-0.35165 20.189471,-1.52331 20.189471,-1.52331 l -1.05834,-9.13989 c 0,0 -11.35493,1.26457 -19.490282,1.62804 L 91.0074,110.12991 c 0,0 2.950098,-35.823805 8.889631,-53.623665 14.076489,-0.880132 32.693359,20.246401 32.693359,20.246401 2.82057,11.401516 1.33954,24.044514 0.0842,33.377264 l 11.87912,30.49384 c -5.91455,1.2137 -14.34908,2.47413 -14.34908,2.47413 l 1.40594,5.4184 c 0,0 8.65865,-1.37367 14.8252,-2.6563 l 3.08363,8.57848 6.73818,-1.64374 -3.92627,-8.37292 c 6.00003,-1.68534 14.10382,-4.40077 14.10382,-4.40077 l -2.92241,-5.04847 c 0,0 -7.83568,2.7086 -13.57809,4.33854 L 136.2384,110.12992 c 0,0 6.68883,-24.326094 9.6218,-29.783687 z"
             id="rect4724"
             inkscape:connector-curvature="0"
             sodipodi:nodetypes="ccssccccccsscsccccccccccccccccccccccccccccccccccccccccc"
             transform="translate(3.0238176,-18.046312)" />
        </g>
      </g>
      <ellipse
         style="fill:none;fill-opacity:1;stroke:#39fcfc;stroke-width:1.5931896;stroke-miterlimit:4;stroke-dasharray:none;stroke-opacity:0"
         id="path4502"
         cx="-10.188992"
         cy="31.615772"
         rx="19.216873"
         ry="21.82045" />
    </g>
  </g>
</svg>
